<mxfile host="app.diagrams.net" agent="Mozilla/5.0 (Windows NT 10.0; Win64; x64) AppleWebKit/537.36 (KHTML, like Gecko) Chrome/127.0.0.0 Safari/537.36 OPR/113.0.0.0 (Edition std-1)" version="24.7.17">
  <diagram name="Strona-1" id="rWcASHaA5LZH0uQB0q2A">
    <mxGraphModel dx="886" dy="465" grid="1" gridSize="10" guides="1" tooltips="1" connect="1" arrows="1" fold="1" page="1" pageScale="1" pageWidth="827" pageHeight="1169" math="0" shadow="0">
      <root>
        <mxCell id="0" />
        <mxCell id="1" parent="0" />
        <mxCell id="wiRPrXuttLidycDrp34L-15" style="rounded=0;orthogonalLoop=1;jettySize=auto;html=1;entryX=0;entryY=0.5;entryDx=0;entryDy=0;endArrow=none;endFill=0;" edge="1" parent="1" source="wiRPrXuttLidycDrp34L-2" target="wiRPrXuttLidycDrp34L-8">
          <mxGeometry relative="1" as="geometry" />
        </mxCell>
        <mxCell id="wiRPrXuttLidycDrp34L-2" value="Supplier" style="whiteSpace=wrap;html=1;align=center;" vertex="1" parent="1">
          <mxGeometry x="210" y="230" width="100" height="40" as="geometry" />
        </mxCell>
        <mxCell id="wiRPrXuttLidycDrp34L-14" style="rounded=0;orthogonalLoop=1;jettySize=auto;html=1;entryX=0.5;entryY=0;entryDx=0;entryDy=0;endArrow=none;endFill=0;" edge="1" parent="1" source="wiRPrXuttLidycDrp34L-3" target="wiRPrXuttLidycDrp34L-2">
          <mxGeometry relative="1" as="geometry" />
        </mxCell>
        <mxCell id="wiRPrXuttLidycDrp34L-3" value="Address" style="ellipse;whiteSpace=wrap;html=1;align=center;" vertex="1" parent="1">
          <mxGeometry x="210" y="130" width="100" height="40" as="geometry" />
        </mxCell>
        <mxCell id="wiRPrXuttLidycDrp34L-13" style="rounded=0;orthogonalLoop=1;jettySize=auto;html=1;entryX=0;entryY=0.5;entryDx=0;entryDy=0;endArrow=none;endFill=0;" edge="1" parent="1" source="wiRPrXuttLidycDrp34L-5" target="wiRPrXuttLidycDrp34L-2">
          <mxGeometry relative="1" as="geometry" />
        </mxCell>
        <mxCell id="wiRPrXuttLidycDrp34L-5" value="&lt;u&gt;Number&lt;/u&gt;" style="ellipse;whiteSpace=wrap;html=1;align=center;" vertex="1" parent="1">
          <mxGeometry x="80" y="170" width="100" height="40" as="geometry" />
        </mxCell>
        <mxCell id="wiRPrXuttLidycDrp34L-11" style="rounded=0;orthogonalLoop=1;jettySize=auto;html=1;entryX=1;entryY=0.5;entryDx=0;entryDy=0;endArrow=none;endFill=0;" edge="1" parent="1" source="wiRPrXuttLidycDrp34L-6" target="wiRPrXuttLidycDrp34L-3">
          <mxGeometry relative="1" as="geometry" />
        </mxCell>
        <mxCell id="wiRPrXuttLidycDrp34L-6" value="Street Name" style="ellipse;whiteSpace=wrap;html=1;align=center;" vertex="1" parent="1">
          <mxGeometry x="280" y="30" width="100" height="40" as="geometry" />
        </mxCell>
        <mxCell id="wiRPrXuttLidycDrp34L-12" style="rounded=0;orthogonalLoop=1;jettySize=auto;html=1;entryX=0.5;entryY=0;entryDx=0;entryDy=0;endArrow=none;endFill=0;" edge="1" parent="1" source="wiRPrXuttLidycDrp34L-7" target="wiRPrXuttLidycDrp34L-3">
          <mxGeometry relative="1" as="geometry" />
        </mxCell>
        <mxCell id="wiRPrXuttLidycDrp34L-7" value="City Name" style="ellipse;whiteSpace=wrap;html=1;align=center;" vertex="1" parent="1">
          <mxGeometry x="140" y="30" width="100" height="40" as="geometry" />
        </mxCell>
        <mxCell id="wiRPrXuttLidycDrp34L-18" style="rounded=0;orthogonalLoop=1;jettySize=auto;html=1;endArrow=none;endFill=0;exitX=1;exitY=0.5;exitDx=0;exitDy=0;" edge="1" parent="1" source="wiRPrXuttLidycDrp34L-8" target="wiRPrXuttLidycDrp34L-29">
          <mxGeometry relative="1" as="geometry">
            <mxPoint x="545.9999999999998" y="300" as="targetPoint" />
          </mxGeometry>
        </mxCell>
        <mxCell id="wiRPrXuttLidycDrp34L-8" value="Provides" style="shape=rhombus;perimeter=rhombusPerimeter;whiteSpace=wrap;html=1;align=center;" vertex="1" parent="1">
          <mxGeometry x="360" y="240" width="120" height="60" as="geometry" />
        </mxCell>
        <mxCell id="wiRPrXuttLidycDrp34L-19" value="n" style="text;strokeColor=none;fillColor=none;spacingLeft=4;spacingRight=4;overflow=hidden;rotatable=0;points=[[0,0.5],[1,0.5]];portConstraint=eastwest;fontSize=12;whiteSpace=wrap;html=1;" vertex="1" parent="1">
          <mxGeometry x="530" y="270" width="40" height="30" as="geometry" />
        </mxCell>
        <mxCell id="wiRPrXuttLidycDrp34L-20" value="1" style="text;strokeColor=none;fillColor=none;spacingLeft=4;spacingRight=4;overflow=hidden;rotatable=0;points=[[0,0.5],[1,0.5]];portConstraint=eastwest;fontSize=12;whiteSpace=wrap;html=1;" vertex="1" parent="1">
          <mxGeometry x="310" y="235" width="40" height="30" as="geometry" />
        </mxCell>
        <mxCell id="wiRPrXuttLidycDrp34L-22" style="rounded=0;orthogonalLoop=1;jettySize=auto;html=1;entryX=0.5;entryY=0;entryDx=0;entryDy=0;endArrow=none;endFill=0;" edge="1" parent="1" source="wiRPrXuttLidycDrp34L-21">
          <mxGeometry relative="1" as="geometry">
            <mxPoint x="590" y="300" as="targetPoint" />
          </mxGeometry>
        </mxCell>
        <mxCell id="wiRPrXuttLidycDrp34L-26" style="rounded=0;orthogonalLoop=1;jettySize=auto;html=1;entryX=0.5;entryY=1;entryDx=0;entryDy=0;endArrow=none;endFill=0;" edge="1" parent="1" source="wiRPrXuttLidycDrp34L-21" target="wiRPrXuttLidycDrp34L-24">
          <mxGeometry relative="1" as="geometry" />
        </mxCell>
        <mxCell id="wiRPrXuttLidycDrp34L-21" value="Belongs" style="shape=rhombus;perimeter=rhombusPerimeter;whiteSpace=wrap;html=1;align=center;" vertex="1" parent="1">
          <mxGeometry x="540" y="130" width="120" height="60" as="geometry" />
        </mxCell>
        <mxCell id="wiRPrXuttLidycDrp34L-24" value="Company" style="whiteSpace=wrap;html=1;align=center;" vertex="1" parent="1">
          <mxGeometry x="550" y="30" width="100" height="40" as="geometry" />
        </mxCell>
        <mxCell id="wiRPrXuttLidycDrp34L-27" value="n" style="text;strokeColor=none;fillColor=none;spacingLeft=4;spacingRight=4;overflow=hidden;rotatable=0;points=[[0,0.5],[1,0.5]];portConstraint=eastwest;fontSize=12;whiteSpace=wrap;html=1;" vertex="1" parent="1">
          <mxGeometry x="590" y="270" width="40" height="30" as="geometry" />
        </mxCell>
        <mxCell id="wiRPrXuttLidycDrp34L-28" value="1" style="text;strokeColor=none;fillColor=none;spacingLeft=4;spacingRight=4;overflow=hidden;rotatable=0;points=[[0,0.5],[1,0.5]];portConstraint=eastwest;fontSize=12;whiteSpace=wrap;html=1;" vertex="1" parent="1">
          <mxGeometry x="600" y="70" width="40" height="30" as="geometry" />
        </mxCell>
        <mxCell id="wiRPrXuttLidycDrp34L-29" value="Part" style="shape=ext;margin=3;double=1;whiteSpace=wrap;html=1;align=center;" vertex="1" parent="1">
          <mxGeometry x="539.9999999999998" y="300" width="100" height="40" as="geometry" />
        </mxCell>
        <mxCell id="wiRPrXuttLidycDrp34L-35" style="rounded=0;orthogonalLoop=1;jettySize=auto;html=1;entryX=1;entryY=0.25;entryDx=0;entryDy=0;endArrow=none;endFill=0;" edge="1" parent="1" source="wiRPrXuttLidycDrp34L-30" target="wiRPrXuttLidycDrp34L-29">
          <mxGeometry relative="1" as="geometry" />
        </mxCell>
        <mxCell id="wiRPrXuttLidycDrp34L-30" value="Name" style="ellipse;whiteSpace=wrap;html=1;align=center;" vertex="1" parent="1">
          <mxGeometry x="650" y="190" width="100" height="40" as="geometry" />
        </mxCell>
        <mxCell id="wiRPrXuttLidycDrp34L-34" style="rounded=0;orthogonalLoop=1;jettySize=auto;html=1;entryX=1;entryY=0.5;entryDx=0;entryDy=0;endArrow=none;endFill=0;" edge="1" parent="1" source="wiRPrXuttLidycDrp34L-31" target="wiRPrXuttLidycDrp34L-29">
          <mxGeometry relative="1" as="geometry" />
        </mxCell>
        <mxCell id="wiRPrXuttLidycDrp34L-31" value="Description" style="ellipse;whiteSpace=wrap;html=1;align=center;" vertex="1" parent="1">
          <mxGeometry x="680" y="270" width="100" height="40" as="geometry" />
        </mxCell>
        <mxCell id="wiRPrXuttLidycDrp34L-33" style="rounded=0;orthogonalLoop=1;jettySize=auto;html=1;entryX=0.75;entryY=1;entryDx=0;entryDy=0;endArrow=none;endFill=0;" edge="1" parent="1" source="wiRPrXuttLidycDrp34L-32" target="wiRPrXuttLidycDrp34L-29">
          <mxGeometry relative="1" as="geometry" />
        </mxCell>
        <mxCell id="wiRPrXuttLidycDrp34L-32" value="&lt;u&gt;Number&lt;/u&gt;" style="ellipse;whiteSpace=wrap;html=1;align=center;" vertex="1" parent="1">
          <mxGeometry x="680" y="340" width="100" height="40" as="geometry" />
        </mxCell>
        <mxCell id="wiRPrXuttLidycDrp34L-61" style="rounded=0;orthogonalLoop=1;jettySize=auto;html=1;entryX=0.5;entryY=1;entryDx=0;entryDy=0;endArrow=none;endFill=0;" edge="1" parent="1" source="wiRPrXuttLidycDrp34L-36" target="wiRPrXuttLidycDrp34L-60">
          <mxGeometry relative="1" as="geometry" />
        </mxCell>
        <mxCell id="wiRPrXuttLidycDrp34L-36" value="Client" style="whiteSpace=wrap;html=1;align=center;" vertex="1" parent="1">
          <mxGeometry x="440" y="550" width="100" height="40" as="geometry" />
        </mxCell>
        <mxCell id="wiRPrXuttLidycDrp34L-37" value="&lt;u&gt;Number&lt;/u&gt;" style="ellipse;whiteSpace=wrap;html=1;align=center;" vertex="1" parent="1">
          <mxGeometry x="430" y="645" width="100" height="40" as="geometry" />
        </mxCell>
        <mxCell id="wiRPrXuttLidycDrp34L-59" style="rounded=0;orthogonalLoop=1;jettySize=auto;html=1;entryX=1;entryY=1;entryDx=0;entryDy=0;endArrow=none;endFill=0;" edge="1" parent="1" source="wiRPrXuttLidycDrp34L-38" target="wiRPrXuttLidycDrp34L-36">
          <mxGeometry relative="1" as="geometry" />
        </mxCell>
        <mxCell id="wiRPrXuttLidycDrp34L-38" value="Last name" style="ellipse;whiteSpace=wrap;html=1;align=center;" vertex="1" parent="1">
          <mxGeometry x="610" y="620" width="100" height="40" as="geometry" />
        </mxCell>
        <mxCell id="wiRPrXuttLidycDrp34L-41" style="rounded=0;orthogonalLoop=1;jettySize=auto;html=1;entryX=1;entryY=0.5;entryDx=0;entryDy=0;endArrow=none;endFill=0;" edge="1" parent="1" source="wiRPrXuttLidycDrp34L-39" target="wiRPrXuttLidycDrp34L-36">
          <mxGeometry relative="1" as="geometry" />
        </mxCell>
        <mxCell id="wiRPrXuttLidycDrp34L-39" value="First name" style="ellipse;whiteSpace=wrap;html=1;align=center;" vertex="1" parent="1">
          <mxGeometry x="570" y="540" width="100" height="40" as="geometry" />
        </mxCell>
        <mxCell id="wiRPrXuttLidycDrp34L-42" style="rounded=0;orthogonalLoop=1;jettySize=auto;html=1;entryX=0.344;entryY=1.017;entryDx=0;entryDy=0;entryPerimeter=0;endArrow=none;endFill=0;" edge="1" parent="1" source="wiRPrXuttLidycDrp34L-37" target="wiRPrXuttLidycDrp34L-36">
          <mxGeometry relative="1" as="geometry" />
        </mxCell>
        <mxCell id="wiRPrXuttLidycDrp34L-55" style="rounded=0;orthogonalLoop=1;jettySize=auto;html=1;entryX=0.5;entryY=1;entryDx=0;entryDy=0;endArrow=none;endFill=0;" edge="1" parent="1" source="wiRPrXuttLidycDrp34L-43" target="wiRPrXuttLidycDrp34L-47">
          <mxGeometry relative="1" as="geometry" />
        </mxCell>
        <mxCell id="wiRPrXuttLidycDrp34L-43" value="Order" style="whiteSpace=wrap;html=1;align=center;" vertex="1" parent="1">
          <mxGeometry x="160" y="430" width="100" height="40" as="geometry" />
        </mxCell>
        <mxCell id="wiRPrXuttLidycDrp34L-44" value="Date" style="ellipse;whiteSpace=wrap;html=1;align=center;" vertex="1" parent="1">
          <mxGeometry x="100" y="565" width="100" height="40" as="geometry" />
        </mxCell>
        <mxCell id="wiRPrXuttLidycDrp34L-52" style="rounded=0;orthogonalLoop=1;jettySize=auto;html=1;entryX=0;entryY=0;entryDx=0;entryDy=0;endArrow=none;endFill=0;" edge="1" parent="1" source="wiRPrXuttLidycDrp34L-46" target="wiRPrXuttLidycDrp34L-43">
          <mxGeometry relative="1" as="geometry" />
        </mxCell>
        <mxCell id="wiRPrXuttLidycDrp34L-46" value="Number" style="ellipse;whiteSpace=wrap;html=1;align=center;dashed=1;" vertex="1" parent="1">
          <mxGeometry x="50" y="370" width="100" height="40" as="geometry" />
        </mxCell>
        <mxCell id="wiRPrXuttLidycDrp34L-53" style="rounded=0;orthogonalLoop=1;jettySize=auto;html=1;entryX=0;entryY=1;entryDx=0;entryDy=0;endArrow=none;endFill=0;" edge="1" parent="1" source="wiRPrXuttLidycDrp34L-47" target="wiRPrXuttLidycDrp34L-29">
          <mxGeometry relative="1" as="geometry">
            <mxPoint x="400" y="460" as="targetPoint" />
          </mxGeometry>
        </mxCell>
        <mxCell id="wiRPrXuttLidycDrp34L-47" value="Contains" style="shape=rhombus;perimeter=rhombusPerimeter;whiteSpace=wrap;html=1;align=center;" vertex="1" parent="1">
          <mxGeometry x="350" y="350" width="120" height="60" as="geometry" />
        </mxCell>
        <mxCell id="wiRPrXuttLidycDrp34L-51" style="rounded=0;orthogonalLoop=1;jettySize=auto;html=1;entryX=0.364;entryY=1.071;entryDx=0;entryDy=0;entryPerimeter=0;endArrow=none;endFill=0;" edge="1" parent="1" source="wiRPrXuttLidycDrp34L-44" target="wiRPrXuttLidycDrp34L-43">
          <mxGeometry relative="1" as="geometry" />
        </mxCell>
        <mxCell id="wiRPrXuttLidycDrp34L-62" style="rounded=0;orthogonalLoop=1;jettySize=auto;html=1;entryX=1;entryY=1;entryDx=0;entryDy=0;endArrow=none;endFill=0;" edge="1" parent="1" source="wiRPrXuttLidycDrp34L-60" target="wiRPrXuttLidycDrp34L-43">
          <mxGeometry relative="1" as="geometry" />
        </mxCell>
        <mxCell id="wiRPrXuttLidycDrp34L-60" value="Orders" style="shape=rhombus;perimeter=rhombusPerimeter;whiteSpace=wrap;html=1;align=center;" vertex="1" parent="1">
          <mxGeometry x="294" y="480" width="120" height="60" as="geometry" />
        </mxCell>
        <mxCell id="wiRPrXuttLidycDrp34L-63" value="1" style="text;strokeColor=none;fillColor=none;spacingLeft=4;spacingRight=4;overflow=hidden;rotatable=0;points=[[0,0.5],[1,0.5]];portConstraint=eastwest;fontSize=12;whiteSpace=wrap;html=1;" vertex="1" parent="1">
          <mxGeometry x="420" y="530" width="40" height="30" as="geometry" />
        </mxCell>
        <mxCell id="wiRPrXuttLidycDrp34L-64" value="1" style="text;strokeColor=none;fillColor=none;spacingLeft=4;spacingRight=4;overflow=hidden;rotatable=0;points=[[0,0.5],[1,0.5]];portConstraint=eastwest;fontSize=12;whiteSpace=wrap;html=1;" vertex="1" parent="1">
          <mxGeometry x="254" y="410" width="40" height="30" as="geometry" />
        </mxCell>
        <mxCell id="wiRPrXuttLidycDrp34L-65" value="n" style="text;strokeColor=none;fillColor=none;spacingLeft=4;spacingRight=4;overflow=hidden;rotatable=0;points=[[0,0.5],[1,0.5]];portConstraint=eastwest;fontSize=12;whiteSpace=wrap;html=1;" vertex="1" parent="1">
          <mxGeometry x="260" y="450" width="40" height="30" as="geometry" />
        </mxCell>
        <mxCell id="wiRPrXuttLidycDrp34L-66" value="n" style="text;strokeColor=none;fillColor=none;spacingLeft=4;spacingRight=4;overflow=hidden;rotatable=0;points=[[0,0.5],[1,0.5]];portConstraint=eastwest;fontSize=12;whiteSpace=wrap;html=1;" vertex="1" parent="1">
          <mxGeometry x="510" y="320" width="40" height="30" as="geometry" />
        </mxCell>
      </root>
    </mxGraphModel>
  </diagram>
</mxfile>
